Coordinates
version=1
nRows=14
nColumns=36
inDegrees=yes

Units are S.I. units (second, meters, Newtons, ...)
If the header above contains a line with 'inDegrees', this indicates whether rotational values are in degrees (yes) or radians (no).

endheader
time	pelvis_tilt	pelvis_list	pelvis_rotation	pelvis_tx	pelvis_ty	pelvis_tz	hip_flexion_r	hip_adduction_r	hip_rotation_r	knee_angle_r	knee_angle_r_beta	ankle_angle_r	subtalar_angle_r	mtp_angle_r	hip_flexion_l	hip_adduction_l	hip_rotation_l	knee_angle_l	knee_angle_l_beta	ankle_angle_l	subtalar_angle_l	mtp_angle_l	lumbar_extension	lumbar_bending	lumbar_rotation	arm_flex_r	arm_add_r	arm_rot_r	elbow_flex_r	pro_sup_r	arm_flex_l	arm_add_l	arm_rot_l	elbow_flex_l	pro_sup_l
      0.00000000	     -2.15576026	     -1.86605438	      2.31416417	     -0.00285664	      0.92053558	     -0.21401670	     28.99619811	     -0.88422194	     -1.20182933	      5.70772582	      0.09961861	     -2.16873163	     -1.61486523	     -5.35909621	    -14.97002130	     -4.33023847	     -7.72897883	     11.88471779	      0.20742746	     19.54430060	      1.13609617	     -5.35909621	     -7.43568602	     -2.23537954	    -12.70452135	     -5.69368764	     -5.09244471	    -12.72889740	     42.81072924	    103.83658099	     14.31782869	    -15.42186815	      1.29816576	     50.02185868	    104.71938151
      0.01000000	     -1.91891172	     -2.62641586	      2.46778554	      0.01094189	      0.92032366	     -0.21178839	     28.69173063	     -0.05344430	     -1.78787719	      6.94347477	      0.12118650	     -3.26493142	     -2.11487393	     -5.38263254	    -15.06413493	     -5.49941609	     -7.72746725	     13.79770139	      0.24081532	     18.73532426	      0.31856599	     -5.38263254	     -7.67168721	     -1.00420642	    -12.63695461	     -5.53317923	     -5.06820630	    -12.96319442	     42.03905171	    103.75676937	     14.27162706	    -15.07451071	      1.11435761	     49.93578085	    104.71514540
      0.02000000	     -1.82225310	     -3.37544626	      2.64217051	      0.02471058	      0.92004571	     -0.20952739	     28.47754909	      0.80338540	     -1.90004596	      8.03821662	      0.14029335	     -5.22659920	     -3.77420761	     -5.49186498	    -14.98901696	     -6.54716502	     -6.92741541	     15.66135138	      0.27334215	     17.26301544	     -1.76144038	     -5.49186498	     -7.71292049	      0.20350947	    -12.81875739	     -5.20302015	     -4.98832385	    -13.18454661	     41.15697789	    103.64147983	     13.89087298	    -14.67823193	      0.30390850	     50.03912487	    104.77017920
      0.03000000	     -1.54907393	     -4.14778089	      2.80775468	      0.03867239	      0.92009732	     -0.20719474	     28.11858018	      1.66544042	     -2.51836427	      9.29468916	      0.16222293	     -6.08487901	     -4.25644256	     -5.51852674	    -14.88502780	     -7.73618910	     -6.78763950	     17.95520487	      0.31337744	     16.07817669	     -2.70008604	     -5.51852674	     -7.96163682	      1.43852531	    -12.71309971	     -5.04107712	     -4.97759604	    -13.38214939	     40.49965973	    103.56546882	     13.74074104	    -14.28425532	      0.12529230	     49.96824862	    104.77617543
      0.04000000	     -1.36077306	     -4.93784638	      2.97871951	      0.05265665	      0.92028398	     -0.20478274	     27.83012828	      2.56670204	     -3.04918253	     10.54999532	      0.18413215	     -6.95954826	     -5.04092250	     -5.55397175	    -14.46748955	     -8.89957077	     -6.28141708	     20.54954033	      0.35865714	     14.37550974	     -4.34710956	     -5.55397175	     -8.08669309	      2.69151201	    -12.65857609	     -4.82892031	     -4.93069855	    -13.62784340	     39.83544860	    103.47086346	     13.40295971	    -13.86777320	     -0.22306613	     49.89418705	    104.77928861
      0.05000000	     -1.16627495	     -5.53859800	      3.09982576	      0.06645770	      0.92075755	     -0.20227594	     27.50972151	      3.34182225	     -3.20231973	     11.80563902	      0.20604727	     -7.64442560	     -6.18989526	     -5.62700097	    -13.82443237	     -9.72347839	     -5.21066479	     23.43881810	      0.40908455	     11.67351690	     -7.28892641	     -5.62700097	     -8.27032830	      3.67155223	    -12.53130409	     -4.55647400	     -4.84162372	    -13.72846883	     39.16976435	    103.34215577	     12.99129234	    -13.42804189	     -0.75497147	     50.00559715	    104.83588628
      0.06000000	     -0.90732850	     -6.20580367	      3.17545163	      0.08020256	      0.92151383	     -0.19962094	     27.06998389	      4.22054322	     -3.44267701	     13.03176638	      0.22744723	     -7.64984316	     -6.98782517	     -5.70999260	    -12.97141114	    -10.67326497	     -4.50900215	     26.72350154	      0.46641309	      8.81147281	     -9.82656856	     -5.70999260	     -8.54646656	      4.71149020	    -12.24100890	     -4.29506224	     -4.78853489	    -13.71780847	     38.61855785	    103.19309090	     12.61602234	    -12.98835192	     -0.98379548	     50.02690711	    104.92364031
      0.07000000	     -0.67346526	     -6.96384330	      3.20318568	      0.09385371	      0.92238657	     -0.19685624	     26.58220442	      5.22629245	     -3.75066223	     14.12131310	      0.24646341	     -7.22568658	     -7.58711625	     -5.74794694	    -11.79126149	    -11.80621852	     -4.14325614	     30.47882777	      0.53195590	      6.23065472	    -11.45499066	     -5.74794694	     -8.78760599	      5.84683353	    -11.81037671	     -4.05681823	     -4.76398370	    -13.75833885	     38.21776964	    103.09482869	     12.22076936	    -12.53397936	     -0.98946303	     49.94980067	    104.96126078
      0.08000000	     -0.54033471	     -7.53900259	      3.16420741	      0.10704866	      0.92333919	     -0.19412676	     26.19536154	      6.06119272	     -3.90905017	     15.22785878	      0.26577627	     -6.64033314	     -8.15632214	     -5.81958464	    -10.31956062	    -12.53023640	     -3.21357903	     34.32514857	      0.59908686	      2.42003852	    -14.67662122	     -5.81958464	     -8.98948723	      6.71479879	    -11.26240152	     -3.75284594	     -4.70717416	    -13.70807782	     37.77234733	    102.91997968	     11.84489724	    -12.06720741	     -1.01856632	     49.90627409	    105.03623005
      0.09000000	     -0.40653278	     -8.19276461	      3.08361650	      0.12004620	      0.92440377	     -0.19136806	     25.68509395	      6.99465685	     -4.11692194	     16.09359118	      0.28088615	     -5.75765804	     -8.48751066	     -5.88200779	     -8.65729229	    -13.40576823	     -2.58517434	     38.38109904	      0.66987655	     -0.89009885	    -16.94512448	     -5.88200779	     -9.21267526	      7.65105388	    -10.60711542	     -3.45345406	     -4.68540184	    -13.61064456	     37.47243835	    102.76733437	     11.46796368	    -11.58818735	     -0.88829008	     49.82127861	    105.10507992
      0.10000000	     -0.29831983	     -8.79735457	      2.93069248	      0.13273543	      0.92555697	     -0.18871122	     25.11336725	      7.88994888	     -4.33480501	     16.78154504	      0.29289321	     -4.70958058	     -8.61439038	     -5.94869892	     -6.86882491	    -14.14226254	     -1.91284915	     42.45219630	      0.74093060	     -4.12836910	    -19.20228225	     -5.94869892	     -9.45350572	      8.53282327	     -9.84944311	     -3.08242878	     -4.68470000	    -13.47509413	     37.25276939	    102.61442144	     11.07173240	    -11.10656284	     -0.67006148	     49.68894215	    105.17635095
      0.11000000	     -0.16028312	     -9.46574773	      2.75557347	      0.14520537	      0.92686332	     -0.18613734	     24.33271621	      8.87991067	     -4.45475472	     17.11702006	      0.29874836	     -3.67677761	     -8.76318251	     -5.97197627	     -5.04684584	    -14.95908382	     -1.34783910	     46.48546079	      0.81132435	     -6.04512467	    -20.16268318	     -5.97197627	     -9.76632575	      9.44701961	     -8.96226920	     -2.71432990	     -4.72947670	    -13.35024210	     37.12870235	    102.56812794	     10.69338378	    -10.57642698	     -0.42467452	     49.65191455	    105.21766336
      0.12000000	     -0.13534551	     -9.96277889	      2.52843747	      0.15725077	      0.92820351	     -0.18380802	     23.63865274	      9.65578982	     -4.60340949	     17.37334738	      0.30322211	     -2.68346973	     -8.70696633	     -5.99373165	     -3.05614381	    -15.41879863	     -0.59013495	     50.34855505	      0.87874806	     -7.67671854	    -21.42461170	     -5.99373165	     -9.99353886	     10.16151896	     -8.02822056	     -2.28983764	     -4.77248393	    -13.17250441	     37.05889532	    102.54048127	     10.31801426	    -10.03204901	     -0.11085953	     49.53879721	    105.26018962
      0.13000000	     -0.17593245	    -10.18507781	      2.28771784	      0.16891517	      0.92967005	     -0.18183976	     23.05186642	     10.05353339	     -4.93643820	     17.76204147	      0.31000611	     -1.40723692	     -7.84182003	     -6.06996103	     -0.99577674	    -15.38558894	      0.29119162	     53.90795012	      0.94087122	     -9.61100001	    -23.56521804	     -6.06996103	    -10.18526953	     10.56002992	     -7.09039031	     -1.82395662	     -4.83723397	    -12.86570115	     37.00972952	    102.46391439	     10.01869042	     -9.55657920	      0.44578415	     49.17150057	    105.36231625
